0
SECTION
2
HEADER
9
$INSUNITS
70
4
9
$ACADVER
1
AC1014
9
$HANDSEED
5
FFFF
0
ENDSEC
0
SECTION
2
TABLES
0
TABLE
2
VPORT
5
8
100
AcDbSymbolTable
0
ENDTAB
0
TABLE
2
LTYPE
5
5
100
AcDbSymbolTable
0
LTYPE
5
14
100
AcDbSymbolTableRecord
100
AcDbLinetypeTableRecord
2
BYBLOCK
70
0
0
LTYPE
5
15
100
AcDbSymbolTableRecord
100
AcDbLinetypeTableRecord
2
BYLAYER
70
0
0
LTYPE
5
16
100
AcDbSymbolTableRecord
100
AcDbLinetypeTableRecord
2
DASHED
70
0
3
Dashed __ __ __ __ __ __ __ __ __ __ __ __ __ _
72
65
73
2
40
0.75
49
0.5
74
0
49
-0.25
74
0
0
ENDTAB
0
TABLE
2
LAYER
5
2
100
AcDbSymbolTable
70
2
0
LAYER
5
50
100
AcDbSymbolTableRecord
100
AcDbLayerTableRecord
2
0
70
0
62
7
6
CONTINUOUS
0
ENDTAB
0
TABLE
2
STYLE
5
3
100
AcDbSymbolTable
70
1
0
STYLE
5
11
100
AcDbSymbolTableRecord
100
AcDbTextStyleTableRecord
2
STANDARD
70
0
0
ENDTAB
0
TABLE
2
VIEW
5
6
100
AcDbSymbolTable
70
0
0
ENDTAB
0
TABLE
2
UCS
5
7
100
AcDbSymbolTable
70
0
0
ENDTAB
0
TABLE
2
APPID
5
9
100
AcDbSymbolTable
70
2
0
APPID
5
12
100
AcDbSymbolTableRecord
100
AcDbRegAppTableRecord
2
ACAD
70
0
0
ENDTAB
0
TABLE
2
DIMSTYLE
5
A
100
AcDbSymbolTable
70
1
0
ENDTAB
0
TABLE
2
BLOCK_RECORD
5
1
100
AcDbSymbolTable
70
1
0
BLOCK_RECORD
5
1F
100
AcDbSymbolTableRecord
100
AcDbBlockTableRecord
2
*MODEL_SPACE
0
BLOCK_RECORD
5
1B
100
AcDbSymbolTableRecord
100
AcDbBlockTableRecord
2
*PAPER_SPACE
0
ENDTAB
0
ENDSEC
0
SECTION
2
BLOCKS
0
BLOCK
5
20
100
AcDbEntity
100
AcDbBlockBegin
2
*MODEL_SPACE
0
ENDBLK
5
21
100
AcDbEntity
100
AcDbBlockEnd
0
BLOCK
5
1C
100
AcDbEntity
100
AcDbBlockBegin
2
*PAPER_SPACE
0
ENDBLK
5
1D
100
AcDbEntity
100
AcDbBlockEnd
0
ENDSEC
0
SECTION
2
ENTITIES
0
POINT
5
100
100
AcDbEntity
8
0
100
AcDbPoint
10
24.918912958498094
20
-10.523444415962484
30
0
0
POINT
5
101
100
AcDbEntity
8
0
100
AcDbPoint
10
40.869599151198884
20
-10.513083468164407
30
0
0
POINT
5
102
100
AcDbEntity
8
0
100
AcDbPoint
10
-41.154712877842819
20
-4.5387910824838986
30
0
0
POINT
5
103
100
AcDbEntity
8
0
100
AcDbPoint
10
-52.354712877842822
20
-1.0387910824838986
30
0
0
POINT
5
104
100
AcDbEntity
8
0
100
AcDbPoint
10
-37.654712877842819
20
6.6612089175161016
30
0
0
POINT
5
105
100
AcDbEntity
8
0
100
AcDbPoint
10
-29.95471287784282
20
-8.0387910824838986
30
0
0
POINT
5
106
100
AcDbEntity
8
0
100
AcDbPoint
10
-44.654712877842826
20
-15.7387910824839
30
0
0
POINT
5
107
100
AcDbEntity
8
0
100
AcDbPoint
10
-4.7077635400116495
20
-10.641109540911449
30
0
0
LINE
5
108
100
AcDbEntity
8
0
100
AcDbLine
10
-61.621037625482643
20
12.931603066532432
30
0
11
-61.621037625482643
21
24.108314808368636
31
0
6
DASHED
0
LINE
5
109
100
AcDbEntity
8
0
100
AcDbLine
10
-61.621037625482643
20
24.108314808368636
30
0
11
-61.621037625482643
21
26.116334206054468
31
0
6
DASHED
0
LINE
5
110
100
AcDbEntity
8
0
100
AcDbLine
10
-55.634866590872065
20
25.358591037116419
30
0
11
-64.38680019210652
21
25.358591037116419
31
0
6
DASHED
0
LINE
5
111
100
AcDbEntity
8
0
100
AcDbLine
10
-64.38680019210652
20
25.358591037116419
30
0
11
-60.010833391489285
21
25.358591037116419
31
0
6
DASHED
0
LINE
5
112
100
AcDbEntity
8
0
100
AcDbLine
10
54.821707623373364
20
-25.26652147661698
30
0
11
59.910173689265704
21
-25.26652147661698
31
0
6
DASHED
0
LINE
5
113
100
AcDbEntity
8
0
100
AcDbLine
10
59.910173689265704
20
-25.26652147661698
30
0
11
62.07946711735665
21
-25.26652147661698
31
0
6
DASHED
0
LINE
5
114
100
AcDbEntity
8
0
100
AcDbLine
10
61.624183311461024
20
-19.213924998239772
30
0
11
61.624183311461024
21
-23.445386253034457
31
0
6
DASHED
0
LINE
5
115
100
AcDbEntity
8
0
100
AcDbLine
10
61.624183311461024
20
-23.445386253034457
30
0
11
61.624183311461024
21
-25.26652147661698
31
0
6
DASHED
0
LWPOLYLINE
5
116
100
AcDbEntity
8
0
100
AcDbPolyline
90
8
70
1
43
0.0
10
60.12418331146101
20
-25.26652147661698
10
-60.121037625482636
20
-25.26652147661698
42
-0.41421356237308721
10
-61.621037625482629
20
-23.76652147661698
10
-61.621037625482643
20
23.858591037116433
42
-0.41421356237308898
10
-60.121037625482643
20
25.358591037116422
10
60.12418331146101
20
25.358591037116422
42
-0.41421356237309503
10
61.624183311461032
20
23.858591037116419
10
61.624183311461024
20
-23.76652147661698
42
-0.41421356237309243
0
LWPOLYLINE
5
117
100
AcDbEntity
8
0
100
AcDbPolyline
90
4
70
1
43
0.0
10
-58.396462507790233
20
16.924456157418096
10
58.74721012935953
20
16.924456157418096
10
58.74721012935953
20
-22.3428447063473
10
-58.396462507790233
20
-22.3428447063473
0
CIRCLE
5
118
100
AcDbEntity
8
0
100
AcDbCircle
10
24.918912958498094
20
-10.523444415962484
30
0
40
5.7312016926995382
210
-0
220
0
230
1
0
CIRCLE
5
119
100
AcDbEntity
8
0
100
AcDbCircle
10
40.869599151198884
20
-10.513083468164407
30
0
40
5.7096029014900118
210
0
220
-0
230
1
0
LWPOLYLINE
5
120
100
AcDbEntity
8
0
100
AcDbPolyline
90
8
70
1
43
0.0
10
31.001474875932544
20
-3.445871730997264
10
18.836351041063644
20
-3.4458717309972666
42
0.41421356237309459
10
17.836351041063644
20
-4.4458717309972666
10
17.836351041063644
20
-16.601017100927699
42
0.41421356237309503
10
18.836351041063644
20
-17.601017100927702
10
31.001474875932544
20
-17.601017100927699
42
0.41421356237309243
10
32.001474875932544
20
-16.601017100927699
10
32.001474875932544
20
-4.4458717309972684
42
0.41421356237309342
0
LINE
5
121
100
AcDbEntity
8
0
100
AcDbLine
10
32.001474875932544
20
-3.4458717309972666
30
0
11
17.836351041063644
21
-17.601017100927699
31
0
6
DASHED
0
LINE
5
122
100
AcDbEntity
8
0
100
AcDbLine
10
17.836351041063644
20
-3.4458717309972666
30
0
11
32.001474875932544
21
-17.601017100927699
31
0
6
DASHED
0
LWPOLYLINE
5
123
100
AcDbEntity
8
0
100
AcDbPolyline
90
8
70
1
43
0.0
10
46.88079350863724
20
-3.4458717309972666
10
34.858404793760528
20
-3.4458717309972697
42
0.41421356237309265
10
33.858404793760535
20
-4.4458717309972666
10
33.858404793760535
20
-16.580295205331545
42
0.41421356237309176
10
34.858404793760535
20
-17.580295205331545
10
46.88079350863724
20
-17.580295205331542
42
0.4142135623730957
10
47.88079350863724
20
-16.580295205331545
10
47.88079350863724
20
-4.4458717309972666
42
0.41421356237309664
0
LINE
5
124
100
AcDbEntity
8
0
100
AcDbLine
10
47.88079350863724
20
-3.4458717309972666
30
0
11
33.858404793760535
21
-17.580295205331545
31
0
6
DASHED
0
LINE
5
125
100
AcDbEntity
8
0
100
AcDbLine
10
33.858404793760535
20
-3.4458717309972666
30
0
11
47.88079350863724
21
-17.580295205331545
31
0
6
DASHED
0
LWPOLYLINE
5
126
100
AcDbEntity
8
0
100
AcDbPolyline
90
4
70
1
43
0.0
10
-10.219109609225885
20
-9.0047999535028609
10
-16.224355996090559
20
-9.0047999535028609
42
0.99999999999999989
10
-16.224355996090559
20
-12.695524295430101
10
-10.219109609225885
20
-12.695524295430101
42
0.99999999999999989
0
LWPOLYLINE
5
127
100
AcDbEntity
8
0
100
AcDbPolyline
90
4
70
1
43
0.0
10
0.77564400390944366
20
-9.0047999535028609
42
0.99999999999999989
10
0.77564400390944366
20
-12.695524295430101
10
6.7808903907741165
20
-12.695524295430101
42
0.99999999999999989
10
6.7808903907741165
20
-9.0047999535028609
0
CIRCLE
5
128
100
AcDbEntity
8
0
100
AcDbCircle
10
-41.154712877842819
20
-4.5387910824838986
30
0
40
2.6192437486459035
210
0
220
0
230
1
0
LINE
5
129
100
AcDbEntity
8
0
100
AcDbLine
10
-37.654712877842819
20
-1.0387910824838986
30
0
11
-44.654712877842826
21
-1.0387910824838986
31
0
0
LINE
5
130
100
AcDbEntity
8
0
100
AcDbLine
10
-44.654712877842826
20
-1.0387910824838986
30
0
11
-44.654712877842826
21
-8.0387910824838986
31
0
0
LINE
5
131
100
AcDbEntity
8
0
100
AcDbLine
10
-44.654712877842826
20
-8.0387910824838986
30
0
11
-37.654712877842819
21
-8.0387910824838986
31
0
0
LINE
5
132
100
AcDbEntity
8
0
100
AcDbLine
10
-37.654712877842819
20
-8.0387910824838986
30
0
11
-37.654712877842819
21
-1.0387910824838986
31
0
0
LINE
5
133
100
AcDbEntity
8
0
100
AcDbLine
10
-37.654712877842819
20
-1.0387910824838986
30
0
11
-44.654712877842826
21
-8.0387910824838986
31
0
6
DASHED
0
LINE
5
134
100
AcDbEntity
8
0
100
AcDbLine
10
-44.654712877842826
20
-1.0387910824838986
30
0
11
-37.654712877842819
21
-8.0387910824838986
31
0
6
DASHED
0
LWPOLYLINE
5
135
100
AcDbEntity
8
0
100
AcDbPolyline
90
6
70
1
43
0.0
10
-44.654712877842826
20
-1.0387910824838986
10
-51.604712877842822
20
-1.0387910824839006
42
0.41421356237309365
10
-52.354712877842822
20
-1.7887910824838986
10
-52.354712877842822
20
-7.2887910824838986
42
0.4142135623730937
10
-51.604712877842822
20
-8.0387910824838968
10
-44.654712877842826
20
-8.0387910824838986
0
LWPOLYLINE
5
136
100
AcDbEntity
8
0
100
AcDbPolyline
90
6
70
1
43
0.0
10
-37.654712877842819
20
-1.0387910824838986
10
-44.654712877842826
20
-1.0387910824838986
10
-44.654712877842826
20
5.9112089175161024
42
-0.41421356237309681
10
-43.904712877842812
20
6.6612089175160989
10
-38.404712877842819
20
6.6612089175161024
42
-0.41421356237309159
10
-37.654712877842819
20
5.9112089175161007
0
LWPOLYLINE
5
137
100
AcDbEntity
8
0
100
AcDbPolyline
90
6
70
1
43
0.0
10
-37.654712877842819
20
-8.0387910824838986
10
-30.704712877842823
20
-8.0387910824838986
42
0.41421356237309076
10
-29.95471287784282
20
-7.2887910824838995
10
-29.95471287784282
20
-1.7887910824838993
42
0.41421356237309137
10
-30.704712877842823
20
-1.0387910824838982
10
-37.654712877842819
20
-1.0387910824838986
0
LWPOLYLINE
5
138
100
AcDbEntity
8
0
100
AcDbPolyline
90
6
70
1
43
0.0
10
-44.654712877842826
20
-8.0387910824838986
10
-37.654712877842819
20
-8.0387910824838986
10
-37.654712877842812
20
-14.988791082483901
42
-0.41421356237309853
10
-38.404712877842819
20
-15.7387910824839
10
-43.904712877842812
20
-15.738791082483898
42
-0.41421356237309681
10
-44.654712877842826
20
-14.988791082483901
0
LINE
5
139
100
AcDbEntity
8
0
100
AcDbLine
10
-44.654712877842826
20
-1.0387910824838986
30
0
11
-37.654712877842819
21
-8.0387910824838986
31
0
0
LINE
5
140
100
AcDbEntity
8
0
100
AcDbLine
10
-44.654712877842826
20
-8.0387910824838986
30
0
11
-44.393236923897121
21
-7.7773151285381932
31
0
0
LINE
5
141
100
AcDbEntity
8
0
100
AcDbLine
10
-37.654712877842819
20
-1.0387910824838986
30
0
11
-44.654712877842826
21
-8.0387910824838986
31
0
0
LWPOLYLINE
5
142
100
AcDbEntity
8
0
100
AcDbPolyline
90
7
70
1
43
0.0
10
-46.696355726331007
20
-3.097559317150818
10
-48.856548371711696
20
-3.097559317150818
10
-48.856548371711696
20
-2.3120347188305672
10
-51.114931591882417
20
-4.6113306784971346
10
-48.856548371711696
20
-6.9106266381637003
10
-48.856548371711696
20
-6.1251020398434513
10
-46.696355726331007
20
-6.1251020398434513
0
LWPOLYLINE
5
143
100
AcDbEntity
8
0
100
AcDbPolyline
90
7
70
1
43
0.0
10
-42.595944643175905
20
-12.240626576352774
10
-43.381469241496156
20
-12.240626576352774
10
-41.08217328182959
20
-14.499009796523495
10
-38.782877322163017
20
-12.240626576352774
10
-39.568401920483268
20
-12.240626576352774
10
-39.568401920483268
20
-10.080433930972085
10
-42.595944643175905
20
-10.080433930972085
0
LWPOLYLINE
5
144
100
AcDbEntity
8
0
100
AcDbPolyline
90
7
70
1
43
0.0
10
-33.452877383973949
20
-5.9800228478169801
10
-33.452877383973949
20
-6.7655474461372309
10
-31.194494163803228
20
-4.4662514864706644
10
-33.452877383973949
20
-2.1669555268040974
10
-33.452877383973949
20
-2.9524801251243469
10
-35.613070029354638
20
-2.9524801251243469
10
-35.613070029354638
20
-5.9800228478169792
0
LWPOLYLINE
5
145
100
AcDbEntity
8
0
100
AcDbPolyline
90
7
70
1
43
0.0
10
-39.71348111250974
20
3.1630444113849787
10
-38.927956514189489
20
3.1630444113849787
10
-41.227252473856055
20
5.4214276315556997
10
-43.52654843352262
20
3.1630444113849787
10
-42.74102383520237
20
3.1630444113849787
10
-42.74102383520237
20
1.002851766004289
10
-39.71348111250974
20
1.002851766004289
0
LWPOLYLINE
5
146
100
AcDbEntity
8
0
100
AcDbPolyline
90
6
70
1
43
0.0
10
-22.085026688820626
20
-22.3428447063473
10
12.669499608797326
20
-22.3428447063473
10
12.669499608797326
20
-20.481180567264676
42
0.41421356237309503
10
10.669499608797326
20
-18.481180567264676
10
-20.085026688820633
20
-18.481180567264673
42
0.41421356237309631
10
-22.085026688820633
20
-20.481180567264673
0
LWPOLYLINE
5
147
100
AcDbEntity
8
0
100
AcDbPolyline
90
6
70
1
43
0.0
10
-22.085026688820626
20
16.924456157418096
10
12.669499608797326
20
16.924456157418096
10
12.669499608797326
20
14.242502350033915
42
-0.41421356237309503
10
10.669499608797326
20
12.242502350033915
10
-20.085026688820626
20
12.242502350033915
42
-0.41421356237309537
10
-22.085026688820626
20
14.242502350033915
0
LWPOLYLINE
5
148
100
AcDbEntity
8
0
100
AcDbPolyline
90
8
70
1
43
0.0
10
10.669499608797326
20
10.563497212789375
10
-20.085026688820626
20
10.563497212789375
42
0.41421356237309459
10
-22.085026688820626
20
8.5634972127893754
10
-22.085026688820626
20
6.4252225703607859
42
0.41421356237309459
10
-20.085026688820626
20
4.4252225703607859
10
10.669499608797327
20
4.4252225703607859
42
0.4142135623730952
10
12.669499608797326
20
6.4252225703607859
10
12.669499608797326
20
8.5634972127893754
42
0.41421356237309503
0
LWPOLYLINE
5
149
100
AcDbEntity
8
0
100
AcDbPolyline
90
8
70
1
43
0.0
10
-20.085026688820626
20
2.8364926629086842
10
10.669499608797324
20
2.8364926629086811
42
-0.41421356237309542
10
12.669499608797326
20
0.83649266290868118
10
12.669499608797326
20
-1.2054953184622048
42
-0.41421356237309548
10
10.669499608797326
20
-3.2054953184622033
10
-20.08502668882063
20
-3.205495318462205
42
-0.41421356237309398
10
-22.085026688820626
20
-1.2054953184622055
10
-22.085026688820626
20
0.83649266290868118
42
-0.41421356237309387
0
LWPOLYLINE
5
150
100
AcDbEntity
8
0
100
AcDbPolyline
90
8
70
1
43
0.0
10
10.669499608797326
20
-4.8664402217075873
10
-20.085026688820626
20
-4.8664402217075882
42
0.41421356237309459
10
-22.085026688820626
20
-6.8664402217075873
10
-22.085026688820626
20
-14.415778860115314
42
0.41421356237309437
10
-20.085026688820626
20
-16.41577886011531
10
10.669499608797327
20
-16.41577886011531
42
0.4142135623730947
10
12.669499608797326
20
-14.41577886011531
10
12.669499608797326
20
-6.8664402217075882
42
0.4142135623730957
0
LWPOLYLINE
5
151
100
AcDbEntity
8
0
100
AcDbPolyline
90
20
70
1
43
0.0
10
-37.327003610187134
20
5.9112089175161033
10
-37.327003610187134
20
-0.71108181482820942
10
-30.704712877842823
20
-0.71108181482820887
42
-0.41421356237309193
10
-29.627003610187131
20
-1.7887910824838971
10
-29.627003610187131
20
-7.2887910824838995
42
-0.41421356237309204
10
-30.704712877842823
20
-8.3665003501395869
10
-37.327003610187134
20
-8.3665003501395869
10
-37.327003610187134
20
-14.988791082483901
42
-0.41421356237309742
10
-38.404712877842819
20
-16.066500350139592
10
-43.904712877842812
20
-16.066500350139584
42
-0.4142135623730957
10
-44.982422145498511
20
-14.988791082483903
10
-44.982422145498511
20
-8.3665003501395869
10
-51.604712877842815
20
-8.3665003501395816
42
-0.41421356237309387
10
-52.682422145498506
20
-7.2887910824838986
10
-52.682422145498506
20
-1.7887910824838986
42
-0.41421356237309404
10
-51.604712877842822
20
-0.7110818148282122
10
-44.982422145498511
20
-0.71108181482821042
10
-44.982422145498511
20
5.9112089175161024
42
-0.41421356237309626
10
-43.904712877842812
20
6.9889181851717872
10
-38.404712877842826
20
6.9889181851717916
42
-0.41421356237309204
0
LINE
5
152
100
AcDbEntity
8
0
100
AcDbLine
10
-22.085026688820626
20
-10.641109540911451
30
0
11
12.669499608797326
21
-10.641109540911449
31
0
6
DASHED
0
LINE
5
153
100
AcDbEntity
8
0
100
AcDbLine
10
-4.7077635400116495
20
-4.8664402217075882
30
0
11
-4.7077635400116495
21
-16.41577886011531
31
0
6
DASHED
0
LINE
5
154
100
AcDbEntity
8
0
100
AcDbLine
10
12.669499608797326
20
-10.641109540911449
30
0
11
11.669499608797324
21
-10.641109540911449
31
0
6
DASHED
0
LINE
5
155
100
AcDbEntity
8
0
100
AcDbLine
10
-4.7077635400116495
20
-4.8664402217075882
30
0
11
-4.7077635400116495
21
-5.8664402217075882
31
0
6
DASHED
0
LWPOLYLINE
5
156
100
AcDbEntity
8
0
100
AcDbPolyline
90
8
70
1
43
0.0
10
9.6694996087973255
20
-5.8664402217075899
10
-19.085026688820619
20
-5.8664402217075882
42
0.4142135623730952
10
-21.085026688820623
20
-7.8664402217075882
10
-21.085026688820623
20
-13.415778860115314
42
0.41421356237309437
10
-19.085026688820623
20
-15.415778860115308
10
9.6694996087973255
20
-15.41577886011531
42
0.41421356237309553
10
11.669499608797324
20
-13.415778860115308
10
11.669499608797324
20
-7.8664402217075882
42
0.41421356237309553
0
LINE
5
157
100
AcDbEntity
8
0
100
AcDbLine
10
11.669499608797324
20
-5.8664402217075882
30
0
11
-21.085026688820623
21
-15.41577886011531
31
0
6
DASHED
0
LINE
5
158
100
AcDbEntity
8
0
100
AcDbLine
10
-21.085026688820623
20
-5.8664402217075882
30
0
11
11.669499608797324
21
-15.41577886011531
31
0
6
DASHED
0
ENDSEC
0
SECTION
2
OBJECTS
0
DICTIONARY
5
C
100
AcDbDictionary
3
ACAD_GROUP
350
D
3
ACAD_MLINESTYLE
350
17
0
DICTIONARY
5
D
100
AcDbDictionary
0
DICTIONARY
5
1A
330
C
100
AcDbDictionary
0
DICTIONARY
5
17
100
AcDbDictionary
0
ENDSEC
0
EOF
